<svg width="49" height="49" viewBox="0 0 49 49" fill="none" xmlns="http://www.w3.org/2000/svg">
<g clip-path="url(#clip0_57_622)">
<path d="M48.5 24.3389C48.5 11.084 37.7548 0.338867 24.5 0.338867C11.2452 0.338867 0.5 11.084 0.5 24.3389C0.5 37.5937 11.2452 48.3389 24.5 48.3389C37.7548 48.3389 48.5 37.5937 48.5 24.3389Z" fill="#7289DA"/>
<path d="M36.5367 16.1186C34.3349 14.3571 31.6927 13.4764 28.9037 13.3296L28.4633 13.77C30.9587 14.3571 33.1606 15.5314 35.2156 17.1461C32.7202 15.825 29.9312 14.9443 26.9954 14.6507C26.1147 14.5039 25.3807 14.5039 24.5 14.5039C23.6193 14.5039 22.8853 14.5039 22.0046 14.6507C19.0688 14.9443 16.2798 15.825 13.7844 17.1461C15.8394 15.5314 18.0413 14.3571 20.5367 13.77L20.0963 13.3296C17.3073 13.4764 14.6651 14.3571 12.4633 16.1186C9.96789 20.8159 8.64679 26.1003 8.5 31.5314C10.7018 33.8801 13.7844 35.348 17.0138 35.348C17.0138 35.348 18.0413 34.1737 18.7752 33.1461C16.867 32.7058 15.1055 31.6782 13.9312 30.0636C14.9587 30.6507 15.9862 31.2379 17.0138 31.6782C18.3349 32.2654 19.656 32.559 20.9771 32.8526C22.1514 32.9993 23.3257 33.1461 24.5 33.1461C25.6743 33.1461 26.8486 32.9993 28.0229 32.8526C29.344 32.559 30.6651 32.2654 31.9862 31.6782C33.0138 31.2379 34.0413 30.6507 35.0688 30.0636C33.8945 31.6782 32.133 32.7058 30.2248 33.1461C30.9587 34.1737 31.9862 35.348 31.9862 35.348C35.2156 35.348 38.2982 33.8801 40.5 31.5314C40.3532 26.1003 39.0321 20.8159 36.5367 16.1186ZM19.656 28.8892C18.1881 28.8892 16.867 27.5681 16.867 25.9535C16.867 24.3388 18.1881 23.0177 19.656 23.0177C21.1239 23.0177 22.445 24.3388 22.445 25.9535C22.445 27.5681 21.1239 28.8892 19.656 28.8892ZM29.344 28.8892C27.8761 28.8892 26.555 27.5681 26.555 25.9535C26.555 24.3388 27.8761 23.0177 29.344 23.0177C30.8119 23.0177 32.133 24.3388 32.133 25.9535C32.133 27.5681 30.8119 28.8892 29.344 28.8892Z" fill="white"/>
</g>
<defs>
<clipPath id="clip0_57_622">
<rect width="48" height="48" fill="white" transform="translate(0.5 0.338867)"/>
</clipPath>
</defs>
</svg>
