<svg width="49" height="49" viewBox="0 0 49 49" fill="none" xmlns="http://www.w3.org/2000/svg">
<g clip-path="url(#clip0_57_618)">
<path d="M33.5 0.338867H15.5C11.5218 0.338867 7.70644 1.91922 4.8934 4.73227C2.08035 7.54531 0.5 11.3606 0.5 15.3389L0.5 33.3389C0.5 37.3171 2.08035 41.1324 4.8934 43.9455C7.70644 46.7585 11.5218 48.3389 15.5 48.3389H33.5C37.4782 48.3389 41.2936 46.7585 44.1066 43.9455C46.9196 41.1324 48.5 37.3171 48.5 33.3389V15.3389C48.5 11.3606 46.9196 7.54531 44.1066 4.73227C41.2936 1.91922 37.4782 0.338867 33.5 0.338867ZM44 33.3389C44 39.1289 39.29 43.8389 33.5 43.8389H15.5C9.71 43.8389 5 39.1289 5 33.3389V15.3389C5 9.54887 9.71 4.83887 15.5 4.83887H33.5C39.29 4.83887 44 9.54887 44 15.3389V33.3389Z" fill="url(#paint0_linear_57_618)"/>
<path d="M24.5 12.3389C21.3174 12.3389 18.2652 13.6031 16.0147 15.8536C13.7643 18.104 12.5 21.1563 12.5 24.3389C12.5 27.5215 13.7643 30.5737 16.0147 32.8242C18.2652 35.0746 21.3174 36.3389 24.5 36.3389C27.6826 36.3389 30.7348 35.0746 32.9853 32.8242C35.2357 30.5737 36.5 27.5215 36.5 24.3389C36.5 21.1563 35.2357 18.104 32.9853 15.8536C30.7348 13.6031 27.6826 12.3389 24.5 12.3389ZM24.5 31.8389C22.5116 31.8365 20.6053 31.0455 19.1993 29.6395C17.7933 28.2335 17.0024 26.3273 17 24.3389C17 20.2019 20.366 16.8389 24.5 16.8389C28.634 16.8389 32 20.2019 32 24.3389C32 28.4729 28.634 31.8389 24.5 31.8389Z" fill="url(#paint1_linear_57_618)"/>
<path d="M37.4 13.0378C38.2831 13.0378 38.999 12.3219 38.999 11.4388C38.999 10.5557 38.2831 9.83984 37.4 9.83984C36.5169 9.83984 35.801 10.5557 35.801 11.4388C35.801 12.3219 36.5169 13.0378 37.4 13.0378Z" fill="url(#paint2_linear_57_618)"/>
</g>
<defs>
<linearGradient id="paint0_linear_57_618" x1="7.52439" y1="41.3145" x2="41.4756" y2="7.36326" gradientUnits="userSpaceOnUse">
<stop stop-color="#FFC107"/>
<stop offset="0.507" stop-color="#F44336"/>
<stop offset="0.99" stop-color="#9C27B0"/>
</linearGradient>
<linearGradient id="paint1_linear_57_618" x1="16.0122" y1="32.8267" x2="32.9878" y2="15.8511" gradientUnits="userSpaceOnUse">
<stop stop-color="#FFC107"/>
<stop offset="0.507" stop-color="#F44336"/>
<stop offset="0.99" stop-color="#9C27B0"/>
</linearGradient>
<linearGradient id="paint2_linear_57_618" x1="36.269" y1="12.5698" x2="38.531" y2="10.3078" gradientUnits="userSpaceOnUse">
<stop stop-color="#FFC107"/>
<stop offset="0.507" stop-color="#F44336"/>
<stop offset="0.99" stop-color="#9C27B0"/>
</linearGradient>
<clipPath id="clip0_57_618">
<rect width="48" height="48" fill="white" transform="translate(0.5 0.338867)"/>
</clipPath>
</defs>
</svg>
