<svg width="49" height="44" viewBox="0 0 49 44" fill="none" xmlns="http://www.w3.org/2000/svg">
<path d="M10.9047 3.73314C16.4075 7.93708 22.3273 16.4597 24.5 21.0334V33.1134C24.5 32.8564 24.4023 33.1471 24.1926 33.7729C23.0583 37.1623 18.6288 50.3899 8.50024 39.8152C3.16702 34.2477 5.63601 28.6797 15.3441 26.9988C9.79024 27.9602 3.54649 26.3715 1.83353 20.1417C1.34 18.3499 0.5 7.31185 0.5 5.82103C0.5 -1.6467 6.93424 0.700555 10.9047 3.73314ZM38.0952 3.73314C32.5925 7.93708 26.6727 16.4597 24.5 21.0334V33.1134C24.5 32.8564 24.5973 33.1471 24.8074 33.7729C25.9413 37.1623 30.3708 50.3899 40.4995 39.8152C45.8328 34.2477 43.364 28.6797 33.6559 26.9988C39.2095 27.9602 45.4533 26.3715 47.1662 20.1417C47.66 18.3499 48.5 7.31185 48.5 5.82103C48.5 -1.6467 42.0664 0.700555 38.0952 3.73314Z" fill="url(#paint0_linear_57_617)"/>
<defs>
<linearGradient id="paint0_linear_57_617" x1="0.5" y1="0.838882" x2="0.5" y2="43.8389" gradientUnits="userSpaceOnUse">
<stop stop-color="#0A7AFF"/>
<stop offset="1" stop-color="#59B9FF"/>
</linearGradient>
</defs>
</svg>
